<mxfile host="app.diagrams.net" agent="Mozilla/5.0 (Windows NT 10.0; Win64; x64) AppleWebKit/537.36 (KHTML, like Gecko) Chrome/131.0.0.0 Safari/537.36 Edg/131.0.0.0" version="25.0.3">
  <diagram name="Página-1" id="BoyiG5m2CKfIbixUMWok">
    <mxGraphModel dx="1434" dy="835" grid="1" gridSize="10" guides="1" tooltips="1" connect="1" arrows="1" fold="1" page="1" pageScale="1" pageWidth="827" pageHeight="1169" math="0" shadow="0">
      <root>
        <mxCell id="0" />
        <mxCell id="1" parent="0" />
        <mxCell id="iA342ZPhZPlneEJbUQlC-6" style="edgeStyle=orthogonalEdgeStyle;rounded=0;orthogonalLoop=1;jettySize=auto;html=1;entryX=0;entryY=0.5;entryDx=0;entryDy=0;" edge="1" parent="1" source="iA342ZPhZPlneEJbUQlC-1" target="iA342ZPhZPlneEJbUQlC-4">
          <mxGeometry relative="1" as="geometry" />
        </mxCell>
        <mxCell id="iA342ZPhZPlneEJbUQlC-1" value="Pessoa" style="whiteSpace=wrap;html=1;align=center;" vertex="1" parent="1">
          <mxGeometry x="170" y="350" width="100" height="40" as="geometry" />
        </mxCell>
        <mxCell id="iA342ZPhZPlneEJbUQlC-7" style="edgeStyle=orthogonalEdgeStyle;rounded=0;orthogonalLoop=1;jettySize=auto;html=1;entryX=0.5;entryY=0;entryDx=0;entryDy=0;" edge="1" parent="1" source="iA342ZPhZPlneEJbUQlC-2" target="iA342ZPhZPlneEJbUQlC-4">
          <mxGeometry relative="1" as="geometry" />
        </mxCell>
        <mxCell id="iA342ZPhZPlneEJbUQlC-2" value="Banco" style="whiteSpace=wrap;html=1;align=center;" vertex="1" parent="1">
          <mxGeometry x="340" y="280" width="100" height="40" as="geometry" />
        </mxCell>
        <mxCell id="iA342ZPhZPlneEJbUQlC-5" style="edgeStyle=orthogonalEdgeStyle;rounded=0;orthogonalLoop=1;jettySize=auto;html=1;" edge="1" parent="1" source="iA342ZPhZPlneEJbUQlC-3" target="iA342ZPhZPlneEJbUQlC-4">
          <mxGeometry relative="1" as="geometry" />
        </mxCell>
        <mxCell id="iA342ZPhZPlneEJbUQlC-3" value="Cia" style="whiteSpace=wrap;html=1;align=center;" vertex="1" parent="1">
          <mxGeometry x="500" y="360" width="100" height="40" as="geometry" />
        </mxCell>
        <mxCell id="iA342ZPhZPlneEJbUQlC-10" value="" style="edgeStyle=orthogonalEdgeStyle;rounded=0;orthogonalLoop=1;jettySize=auto;html=1;" edge="1" parent="1" source="iA342ZPhZPlneEJbUQlC-4" target="iA342ZPhZPlneEJbUQlC-8">
          <mxGeometry relative="1" as="geometry" />
        </mxCell>
        <mxCell id="iA342ZPhZPlneEJbUQlC-4" value="U" style="ellipse;whiteSpace=wrap;html=1;aspect=fixed;" vertex="1" parent="1">
          <mxGeometry x="370" y="370" width="40" height="40" as="geometry" />
        </mxCell>
        <mxCell id="iA342ZPhZPlneEJbUQlC-8" value="Owner" style="whiteSpace=wrap;html=1;align=center;" vertex="1" parent="1">
          <mxGeometry x="340" y="500" width="100" height="40" as="geometry" />
        </mxCell>
        <mxCell id="iA342ZPhZPlneEJbUQlC-15" style="edgeStyle=orthogonalEdgeStyle;rounded=0;orthogonalLoop=1;jettySize=auto;html=1;entryX=0;entryY=0.5;entryDx=0;entryDy=0;" edge="1" parent="1" source="iA342ZPhZPlneEJbUQlC-13" target="iA342ZPhZPlneEJbUQlC-1">
          <mxGeometry relative="1" as="geometry" />
        </mxCell>
        <mxCell id="iA342ZPhZPlneEJbUQlC-13" value="CPF" style="ellipse;whiteSpace=wrap;html=1;align=center;fontStyle=4;" vertex="1" parent="1">
          <mxGeometry x="20" y="290" width="100" height="40" as="geometry" />
        </mxCell>
        <mxCell id="iA342ZPhZPlneEJbUQlC-16" value="Licença&lt;span style=&quot;white-space: pre;&quot;&gt;&#x9;&lt;/span&gt;" style="ellipse;whiteSpace=wrap;html=1;align=center;fontStyle=4;" vertex="1" parent="1">
          <mxGeometry x="30" y="200" width="100" height="40" as="geometry" />
        </mxCell>
        <mxCell id="iA342ZPhZPlneEJbUQlC-20" style="edgeStyle=orthogonalEdgeStyle;rounded=0;orthogonalLoop=1;jettySize=auto;html=1;entryX=0.14;entryY=-0.075;entryDx=0;entryDy=0;entryPerimeter=0;" edge="1" parent="1" source="iA342ZPhZPlneEJbUQlC-16" target="iA342ZPhZPlneEJbUQlC-1">
          <mxGeometry relative="1" as="geometry" />
        </mxCell>
        <mxCell id="iA342ZPhZPlneEJbUQlC-23" value="Nome" style="ellipse;whiteSpace=wrap;html=1;align=center;" vertex="1" parent="1">
          <mxGeometry x="140" y="60" width="100" height="40" as="geometry" />
        </mxCell>
        <mxCell id="iA342ZPhZPlneEJbUQlC-24" value="Endereço" style="ellipse;whiteSpace=wrap;html=1;align=center;" vertex="1" parent="1">
          <mxGeometry x="210" y="120" width="100" height="40" as="geometry" />
        </mxCell>
        <mxCell id="iA342ZPhZPlneEJbUQlC-25" value="Bendereço" style="ellipse;whiteSpace=wrap;html=1;align=center;" vertex="1" parent="1">
          <mxGeometry x="430" y="170" width="100" height="40" as="geometry" />
        </mxCell>
        <mxCell id="iA342ZPhZPlneEJbUQlC-27" style="edgeStyle=orthogonalEdgeStyle;rounded=0;orthogonalLoop=1;jettySize=auto;html=1;entryX=0.91;entryY=-0.075;entryDx=0;entryDy=0;entryPerimeter=0;" edge="1" parent="1" source="iA342ZPhZPlneEJbUQlC-24" target="iA342ZPhZPlneEJbUQlC-1">
          <mxGeometry relative="1" as="geometry" />
        </mxCell>
        <mxCell id="iA342ZPhZPlneEJbUQlC-28" style="edgeStyle=orthogonalEdgeStyle;rounded=0;orthogonalLoop=1;jettySize=auto;html=1;entryX=0.33;entryY=-0.1;entryDx=0;entryDy=0;entryPerimeter=0;" edge="1" parent="1" source="iA342ZPhZPlneEJbUQlC-23" target="iA342ZPhZPlneEJbUQlC-1">
          <mxGeometry relative="1" as="geometry" />
        </mxCell>
        <mxCell id="iA342ZPhZPlneEJbUQlC-31" value="" style="edgeStyle=orthogonalEdgeStyle;rounded=0;orthogonalLoop=1;jettySize=auto;html=1;" edge="1" parent="1" source="iA342ZPhZPlneEJbUQlC-29" target="iA342ZPhZPlneEJbUQlC-2">
          <mxGeometry relative="1" as="geometry" />
        </mxCell>
        <mxCell id="iA342ZPhZPlneEJbUQlC-29" value="Bnome" style="ellipse;whiteSpace=wrap;html=1;align=center;fontStyle=4;" vertex="1" parent="1">
          <mxGeometry x="320" y="170" width="100" height="40" as="geometry" />
        </mxCell>
        <mxCell id="iA342ZPhZPlneEJbUQlC-32" style="edgeStyle=orthogonalEdgeStyle;rounded=0;orthogonalLoop=1;jettySize=auto;html=1;entryX=0.85;entryY=-0.025;entryDx=0;entryDy=0;entryPerimeter=0;" edge="1" parent="1" source="iA342ZPhZPlneEJbUQlC-25" target="iA342ZPhZPlneEJbUQlC-2">
          <mxGeometry relative="1" as="geometry" />
        </mxCell>
        <mxCell id="iA342ZPhZPlneEJbUQlC-36" style="edgeStyle=orthogonalEdgeStyle;rounded=0;orthogonalLoop=1;jettySize=auto;html=1;entryX=0.75;entryY=0;entryDx=0;entryDy=0;" edge="1" parent="1" source="iA342ZPhZPlneEJbUQlC-33" target="iA342ZPhZPlneEJbUQlC-3">
          <mxGeometry relative="1" as="geometry" />
        </mxCell>
        <mxCell id="iA342ZPhZPlneEJbUQlC-33" value="Cendereço" style="ellipse;whiteSpace=wrap;html=1;align=center;" vertex="1" parent="1">
          <mxGeometry x="640" y="300" width="100" height="40" as="geometry" />
        </mxCell>
        <mxCell id="iA342ZPhZPlneEJbUQlC-35" value="" style="edgeStyle=orthogonalEdgeStyle;rounded=0;orthogonalLoop=1;jettySize=auto;html=1;" edge="1" parent="1" source="iA342ZPhZPlneEJbUQlC-34" target="iA342ZPhZPlneEJbUQlC-3">
          <mxGeometry relative="1" as="geometry" />
        </mxCell>
        <mxCell id="iA342ZPhZPlneEJbUQlC-34" value="Cnome" style="ellipse;whiteSpace=wrap;html=1;align=center;fontStyle=4;" vertex="1" parent="1">
          <mxGeometry x="640" y="370" width="100" height="40" as="geometry" />
        </mxCell>
      </root>
    </mxGraphModel>
  </diagram>
</mxfile>
